Coordinates
version=1
nRows=19
nColumns=34
inDegrees=yes

Units are S.I. units (second, meters, Newtons, ...)
If the header above contains a line with 'inDegrees', this indicates whether rotational values are in degrees (yes) or radians (no).

endheader
time	pelvis_tilt	pelvis_list	pelvis_rotation	pelvis_tx	pelvis_ty	pelvis_tz	hip_flexion_r	hip_adduction_r	hip_rotation_r	knee_angle_r	ankle_angle_r	subtalar_angle_r	mtp_angle_r	hip_flexion_l	hip_adduction_l	hip_rotation_l	knee_angle_l	ankle_angle_l	subtalar_angle_l	mtp_angle_l	lumbar_extension	lumbar_bending	lumbar_rotation	arm_flex_r	arm_add_r	arm_rot_r	elbow_flex_r	pro_sup_r	arm_flex_l	arm_add_l	arm_rot_l	elbow_flex_l	pro_sup_l
      6.60000000	    -12.12847192	     -0.25539421	     -2.10466729	      0.32227132	      0.61526192	     -0.02772521	     75.85380505	    -17.47591963	      0.55504310	     94.18412676	     32.02250315	     -5.58514158	      0.00000000	     75.91334078	    -27.48352865	     -1.05205729	     95.27763021	     26.58012254	     -7.73102708	      0.00000000	    -38.76495868	     -4.46412724	      2.88556383	     80.40853550	      9.20437159	     75.50421050	    120.84811770	    100.91941467	     65.08184364	      6.95216225	     65.95482257	    120.52328981	     94.04377759
      6.61666670	    -12.02463251	     -0.25114896	     -1.93024343	      0.32360473	      0.62133770	     -0.02945452	     74.98553579	    -17.45638448	      0.50986196	     93.34784295	     31.44515009	     -5.90225999	      0.00000000	     75.15319633	    -26.96765338	     -1.28902459	     94.37191292	     26.34077794	     -7.80750326	      0.00000000	    -38.58278677	     -4.36009505	      2.93455356	     80.23318802	      9.05069402	     75.55918215	    120.92086896	    100.91938848	     65.19517696	      6.99620822	     65.96103490	    120.38623951	     94.32628679
      6.63333330	    -11.49569577	     -0.24936575	     -1.94159895	      0.32337594	      0.62732989	     -0.02972944	     73.66170377	    -17.24626328	      0.41239707	     92.25369020	     30.94260298	     -6.30641147	      0.00000000	     73.89839114	    -26.61816810	     -1.56098849	     93.33648715	     25.75982860	     -8.37480160	      0.00000000	    -38.88111319	     -4.45636407	      2.92151075	     80.84312714	      9.09680865	     75.12346729	    120.95616332	    100.88970819	     65.78563211	      7.21007332	     65.30355516	    119.97350547	     94.79030952
      6.65000000	    -11.32654036	     -0.23823938	     -1.53373760	      0.32529632	      0.63467558	     -0.03133387	     72.36745877	    -17.45451511	      0.24964914	     91.11080760	     30.58779737	     -6.49469239	      0.00000000	     72.85993314	    -25.88436091	     -1.85562127	     92.09555952	     25.41768021	     -8.58028581	      0.00000000	    -38.65715700	     -4.25918803	      2.69494699	     80.89063600	      9.03600302	     75.11363281	    121.12379171	    100.87380840	     65.96185600	      7.35824517	     64.94605264	    119.81680692	     95.15523580
      6.66666670	    -10.85827479	     -0.25920162	     -1.32879840	      0.32404807	      0.64355734	     -0.03082433	     70.63804006	    -17.43044013	     -0.00406666	     89.57279174	     30.04895724	     -6.69735873	      0.00000000	     71.30625519	    -25.38405712	     -2.20463171	     90.59252485	     24.63405023	     -8.94178081	      0.00000000	    -38.56425659	     -4.19737585	      2.57200113	     80.88075089	      9.01310824	     74.77431522	    121.23305355	    100.84956809	     66.31218609	      7.38556186	     64.21465879	    119.47975559	     95.43473650
      6.68333330	    -10.31907961	     -0.24149243	     -1.18106126	      0.33032290	      0.65542949	     -0.03007551	     68.38392784	    -17.33465836	     -0.40710809	     87.72250219	     29.73362390	     -6.89523073	      0.00000000	     69.14743256	    -25.01722691	     -2.73714747	     88.75330270	     23.84858245	     -9.23990535	      0.00000000	    -38.36919098	     -4.27875405	      2.56242889	     80.41509115	      8.98050642	     74.92982128	    121.35596003	    100.87398412	     65.98669830	      7.14883518	     63.66588826	    119.09432255	     95.66922666
      6.70000000	     -9.80756312	     -0.08536855	     -1.08167846	      0.33453088	      0.66676362	     -0.03170943	     65.95622206	    -17.39490357	     -0.79045467	     85.57997962	     29.08758603	     -7.06629876	      0.00000000	     66.47342071	    -24.57251636	     -3.61829771	     86.50291415	     23.45026482	     -9.08127230	      0.00000000	    -38.14283133	     -4.35298511	      2.43733353	     80.12579109	      9.10027313	     75.23051353	    121.54910543	    100.94412074	     65.48129081	      7.07246497	     63.60816680	    118.99135236	     95.93976005
      6.71666670	     -9.52060786	      0.02786718	     -1.23539051	      0.33422645	      0.67685641	     -0.03293850	     64.03752545	    -17.33988432	     -1.23302260	     83.32060491	     28.46222354	     -6.93979694	      0.00000000	     64.16077988	    -24.14093444	     -4.40302312	     84.31791695	     23.30733822	     -9.13498185	      0.00000000	    -37.57690047	     -4.57483434	      2.20092637	     79.58187264	      9.20233020	     75.41425871	    121.71297389	    100.99962566	     64.97356347	      6.92560142	     63.00331725	    118.82986534	     96.04291673
      6.73333330	     -9.36021574	      0.14523497	     -1.24134198	      0.33990669	      0.68771491	     -0.03418344	     61.95068395	    -17.53615949	     -1.89714821	     80.96802066	     27.59410367	     -6.94371411	      0.00000000	     61.79344585	    -23.63992829	     -5.21007371	     81.93203299	     22.90291907	     -9.28042933	      0.00000000	    -36.71076746	     -4.62710109	      2.16906569	     78.84534408	      9.22036579	     75.53310219	    121.89649472	    101.05977978	     64.16153587	      6.74141675	     61.85357543	    118.55089670	     96.05151618
      6.75000000	     -9.13286346	      0.29505762	     -1.41769549	      0.34157529	      0.69823543	     -0.03414701	     59.99362559	    -17.50571246	     -2.37158277	     78.56069368	     26.70385399	     -6.86126646	      0.00000000	     59.42608791	    -23.23758952	     -6.09809010	     79.49694036	     22.45103917	     -9.39143465	      0.00000000	    -35.87343781	     -4.70872071	      2.23826665	     78.61205204	      9.49140516	     75.09327310	    122.02732978	    101.10558171	     64.25380727	      6.22355120	     58.15936936	    117.41757841	     95.80597307
      6.76666670	     -8.90801824	      0.35028657	     -1.50430191	      0.34981518	      0.71037353	     -0.03470727	     57.58143534	    -17.46770057	     -2.93921692	     75.95117899	     26.19446208	     -6.78700628	      0.00000000	     56.93397647	    -22.92374244	     -7.03287787	     76.95442770	     21.97723566	     -9.54461823	      0.00000000	    -34.71308407	     -4.73591809	      2.18567780	     77.75445584	      9.56351942	     74.96783033	    122.11691950	    101.16576798	     63.24909385	      6.12020157	     55.89939260	    116.85311773	     95.52899354
      6.78333330	     -8.73765636	      0.55597937	     -1.54506273	      0.35134108	      0.72059276	     -0.03419559	     55.41615223	    -17.58004245	     -3.52166135	     73.36334642	     25.58779464	     -6.56529403	      0.00000000	     54.63028665	    -22.50086064	     -8.13162286	     74.41224792	     21.18979284	     -9.84757531	      0.00000000	    -33.43679428	     -4.86405919	      2.55669909	     77.23025705	      9.69399822	     74.67995149	    122.17901737	    101.21193048	     62.13652838	      6.05738248	     53.89894358	    116.48858765	     95.16523197
      6.80000000	     -8.78316134	      0.65937895	     -1.49454249	      0.35047049	      0.72895418	     -0.03246960	     53.93092470	    -17.53573085	     -4.12000104	     71.02065448	     24.91762103	     -6.20804496	      0.00000000	     52.79168570	    -22.03739363	     -8.91861342	     71.78531287	     20.82630028	     -9.72345975	      0.00000000	    -31.92298278	     -4.88289126	      2.96415930	     77.25291236	      9.66850131	     74.09134402	    122.28884081	    101.19357713	     61.40961921	      6.47542264	     52.88633850	    116.41250920	     94.83052311
      6.81666670	     -8.90038851	      0.73183778	     -1.43183561	      0.35667547	      0.73836989	     -0.03394796	     52.31284473	    -17.60374055	     -4.91397547	     68.61531873	     24.31211694	     -5.79876996	      0.00000000	     50.94572588	    -21.63470807	     -9.79732161	     69.16389314	     20.29055301	     -9.63557656	      0.00000000	    -30.15739625	     -4.85901865	      3.14536612	     76.80886159	      9.76766968	     73.80886344	    122.58752979	    101.18476910	     60.85979572	      6.57936454	     51.26150382	    115.62616543	     94.35300554
      6.83333330	     -8.78204373	      0.79859009	     -1.38744382	      0.36311210	      0.75543353	     -0.03433227	     49.75496477	    -17.54542535	     -5.84967869	     65.33704324	     23.42699941	     -5.02425310	      0.00000000	     48.36325686	    -21.20650851	    -11.01647212	     65.84534271	     19.25867841	     -9.37838760	      0.00000000	    -28.68210234	     -4.71714237	      3.39364498	     76.23708734	      9.77396712	     73.51768812	    122.52927490	    101.19484060	     60.11686880	      6.64738821	     48.85713588	    113.97907979	     93.55364945
      6.85000000	     -8.47483506	      0.75358933	     -1.29809860	      0.36771698	      0.76765613	     -0.03333377	     46.94943572	    -17.43688943	     -7.05370493	     61.99139238	     22.19826526	     -4.76748757	      0.00000000	     45.70077589	    -20.83794965	    -12.04084817	     62.52108378	     18.51466075	     -8.53465675	      0.00000000	    -27.21708805	     -4.60844598	      3.50598702	     75.58980745	      9.86788251	     73.41622597	    122.34787720	    101.18818588	     59.09091504	      6.84164746	     47.42224105	    112.57724868	     92.53038659
      6.86666670	     -8.31786872	      0.75187708	     -1.38322948	      0.37294078	      0.77872984	     -0.03338741	     44.25613336	    -17.22416141	     -8.12827412	     58.55052052	     20.95022633	     -4.39905572	      0.00000000	     43.06071650	    -20.52568129	    -13.31877232	     59.02322836	     17.67888665	     -7.74453866	      0.00000000	    -25.44759943	     -4.58411608	      3.59363170	     74.84734765	     10.12763274	     73.51213172	    121.95520782	    101.16228745	     58.03518018	      6.68297045	     45.53693172	    111.06625732	     91.36701478
      6.88333330	     -8.19041038	      0.70338345	     -1.14500519	      0.37357651	      0.78856590	     -0.03419926	     41.76411350	    -17.05160532	     -9.19154528	     55.15352784	     20.44424992	     -3.49455632	      0.00000000	     40.67163514	    -20.02058258	    -14.24070801	     55.69213929	     16.98482202	     -6.98184632	      0.00000000	    -23.75445298	     -4.31608085	      3.73469906	     74.68903267	     10.05097573	     73.40680909	    121.93809630	    101.07045737	     57.21892645	      6.74377338	     43.54734990	    109.83952095	     90.05347575
      6.90000000	     -8.26233239	      0.68272822	     -0.78100398	      0.37866018	      0.79630205	     -0.03460773	     39.53235544	    -16.99075002	    -10.25450538	     52.04088059	     19.69454269	     -2.94622428	      0.00000000	     38.77223585	    -19.46584750	    -14.94476278	     52.68428431	     16.30689223	     -6.42972417	      0.00000000	    -21.87590080	     -4.02359659	      3.64906777	     74.32738653	     10.10140602	     72.89415579	    121.79610683	    100.93226265	     56.75210810	      6.83131960	     41.75265525	    108.89240451	     88.94566287
